<mxfile host="app.diagrams.net" agent="Mozilla/5.0 (Windows NT 10.0; Win64; x64) AppleWebKit/537.36 (KHTML, like Gecko) Chrome/130.0.0.0 Safari/537.36" version="24.8.3">
  <diagram name="第 1 页" id="AtP9In7J8K8CRuKhkL53">
    <mxGraphModel dx="1434" dy="746" grid="1" gridSize="10" guides="1" tooltips="1" connect="1" arrows="1" fold="1" page="1" pageScale="1" pageWidth="827" pageHeight="1169" math="0" shadow="0">
      <root>
        <mxCell id="0" />
        <mxCell id="1" parent="0" />
        <mxCell id="8XLKjjISTru-VaaZGkSW-6" value="" style="rounded=0;whiteSpace=wrap;html=1;" vertex="1" parent="1">
          <mxGeometry x="170" y="570" width="540" height="220" as="geometry" />
        </mxCell>
        <mxCell id="8XLKjjISTru-VaaZGkSW-1" value="日志服务" style="rounded=0;whiteSpace=wrap;html=1;align=left;verticalAlign=top;" vertex="1" parent="1">
          <mxGeometry x="80" y="490" width="690" height="400" as="geometry" />
        </mxCell>
        <mxCell id="8XLKjjISTru-VaaZGkSW-3" value="关系型table1" style="shape=cylinder3;whiteSpace=wrap;html=1;boundedLbl=1;backgroundOutline=1;size=15;" vertex="1" parent="1">
          <mxGeometry x="200" y="700" width="186" height="65" as="geometry" />
        </mxCell>
        <mxCell id="8XLKjjISTru-VaaZGkSW-12" style="edgeStyle=orthogonalEdgeStyle;rounded=0;orthogonalLoop=1;jettySize=auto;html=1;exitX=0.5;exitY=1;exitDx=0;exitDy=0;entryX=0.5;entryY=0;entryDx=0;entryDy=0;" edge="1" parent="1" source="8XLKjjISTru-VaaZGkSW-4" target="8XLKjjISTru-VaaZGkSW-1">
          <mxGeometry relative="1" as="geometry" />
        </mxCell>
        <mxCell id="8XLKjjISTru-VaaZGkSW-4" value="微服务A" style="rounded=0;whiteSpace=wrap;html=1;" vertex="1" parent="1">
          <mxGeometry x="150" y="260" width="120" height="60" as="geometry" />
        </mxCell>
        <mxCell id="8XLKjjISTru-VaaZGkSW-5" value="关系型table2" style="shape=cylinder3;whiteSpace=wrap;html=1;boundedLbl=1;backgroundOutline=1;size=15;" vertex="1" parent="1">
          <mxGeometry x="450" y="700" width="186" height="65" as="geometry" />
        </mxCell>
        <mxCell id="8XLKjjISTru-VaaZGkSW-7" value="分库分表组件转发请求增、查请求" style="rounded=0;whiteSpace=wrap;html=1;" vertex="1" parent="1">
          <mxGeometry x="200" y="600" width="470" height="50" as="geometry" />
        </mxCell>
        <mxCell id="8XLKjjISTru-VaaZGkSW-13" style="edgeStyle=orthogonalEdgeStyle;rounded=0;orthogonalLoop=1;jettySize=auto;html=1;exitX=0.5;exitY=1;exitDx=0;exitDy=0;entryX=0.5;entryY=0;entryDx=0;entryDy=0;" edge="1" parent="1" source="8XLKjjISTru-VaaZGkSW-8" target="8XLKjjISTru-VaaZGkSW-1">
          <mxGeometry relative="1" as="geometry" />
        </mxCell>
        <mxCell id="8XLKjjISTru-VaaZGkSW-8" value="微服务B" style="rounded=0;whiteSpace=wrap;html=1;" vertex="1" parent="1">
          <mxGeometry x="365" y="260" width="120" height="60" as="geometry" />
        </mxCell>
        <mxCell id="8XLKjjISTru-VaaZGkSW-14" style="edgeStyle=orthogonalEdgeStyle;rounded=0;orthogonalLoop=1;jettySize=auto;html=1;exitX=0.5;exitY=1;exitDx=0;exitDy=0;entryX=0.5;entryY=0;entryDx=0;entryDy=0;" edge="1" parent="1" source="8XLKjjISTru-VaaZGkSW-9" target="8XLKjjISTru-VaaZGkSW-1">
          <mxGeometry relative="1" as="geometry" />
        </mxCell>
        <mxCell id="8XLKjjISTru-VaaZGkSW-9" value="微服务C" style="rounded=0;whiteSpace=wrap;html=1;" vertex="1" parent="1">
          <mxGeometry x="570" y="260" width="120" height="60" as="geometry" />
        </mxCell>
        <mxCell id="8XLKjjISTru-VaaZGkSW-15" value="openAPi接口，上报log日志" style="text;html=1;align=center;verticalAlign=middle;whiteSpace=wrap;rounded=0;" vertex="1" parent="1">
          <mxGeometry x="380" y="440" width="140" height="30" as="geometry" />
        </mxCell>
      </root>
    </mxGraphModel>
  </diagram>
</mxfile>
